<svg width="16" height="16" viewBox="0 0 16 16" fill="none" xmlns="http://www.w3.org/2000/svg">
<path d="M13.4444 7.22222H2.55556M13.4444 7.22222C13.857 7.22222 14.2527 7.38611 14.5444 7.67783C14.8361 7.96956 15 8.36522 15 8.77778V13.4444C15 13.857 14.8361 14.2527 14.5444 14.5444C14.2527 14.8361 13.857 15 13.4444 15H2.55556C2.143 15 1.74733 14.8361 1.45561 14.5444C1.16389 14.2527 1 13.857 1 13.4444V8.77778C1 8.36522 1.16389 7.96956 1.45561 7.67783C1.74733 7.38611 2.143 7.22222 2.55556 7.22222M13.4444 7.22222V5.66667C13.4444 5.25411 13.2806 4.85845 12.9888 4.56672C12.6971 4.275 12.3014 4.11111 11.8889 4.11111M2.55556 7.22222V5.66667C2.55556 5.25411 2.71944 4.85845 3.01117 4.56672C3.30289 4.275 3.69855 4.11111 4.11111 4.11111M11.8889 4.11111V2.55556C11.8889 2.143 11.725 1.74733 11.4333 1.45561C11.1416 1.16389 10.7459 1 10.3333 1H5.66667C5.25411 1 4.85845 1.16389 4.56672 1.45561C4.275 1.74733 4.11111 2.143 4.11111 2.55556V4.11111M11.8889 4.11111H4.11111" stroke="#999B9F" stroke-width="1.9" stroke-linecap="round" stroke-linejoin="round"/>
</svg>
