<svg width="20" height="21" viewBox="0 0 20 21" fill="none" xmlns="http://www.w3.org/2000/svg">
<path d="M18.125 10.5C18.125 7.60938 16.5625 4.95312 14.0625 3.46875C11.5234 2.02344 8.4375 2.02344 5.9375 3.46875C3.39844 4.95312 1.875 7.60938 1.875 10.5C1.875 13.4297 3.39844 16.0859 5.9375 17.5703C8.4375 19.0156 11.5234 19.0156 14.0625 17.5703C16.5625 16.0859 18.125 13.4297 18.125 10.5ZM0 10.5C0 6.94531 1.875 3.66406 5 1.86719C8.08594 0.0703125 11.875 0.0703125 15 1.86719C18.0859 3.66406 20 6.94531 20 10.5C20 14.0938 18.0859 17.375 15 19.1719C11.875 20.9688 8.08594 20.9688 5 19.1719C1.875 17.375 0 14.0938 0 10.5ZM6.60156 6.98438C6.91406 6.08594 7.73438 5.5 8.67188 5.5H10.9375C12.3047 5.5 13.4375 6.63281 13.4375 8C13.4375 8.85938 12.9297 9.67969 12.1875 10.1094L10.9375 10.8516C10.8984 11.3594 10.5078 11.75 10 11.75C9.45312 11.75 9.0625 11.3594 9.0625 10.8125V10.3047C9.0625 9.95312 9.21875 9.64062 9.53125 9.48438L11.25 8.50781C11.4453 8.39062 11.5625 8.19531 11.5625 8C11.5625 7.64844 11.2891 7.41406 10.9375 7.41406H8.67188C8.55469 7.41406 8.4375 7.49219 8.39844 7.60938L8.35938 7.64844C8.20312 8.15625 7.65625 8.39062 7.1875 8.23438C6.67969 8.03906 6.44531 7.49219 6.60156 7.02344V6.98438ZM8.75 14.25C8.75 13.5859 9.29688 13 10 13C10.6641 13 11.25 13.5859 11.25 14.25C11.25 14.9531 10.6641 15.5 10 15.5C9.29688 15.5 8.75 14.9531 8.75 14.25Z" fill="#999B9F"/>
</svg>
