<svg width="18" height="20" viewBox="0 0 18 20" fill="none" xmlns="http://www.w3.org/2000/svg">
<path d="M16.0833 6.06478L8.99997 9.99996M8.99997 9.99996L1.91664 6.06478M8.99997 9.99996L9 17.9167M16.5 13.3821V6.61786C16.5 6.33232 16.5 6.18956 16.4579 6.06222C16.4207 5.94958 16.3599 5.84618 16.2795 5.75893C16.1886 5.66032 16.0638 5.59099 15.8142 5.45232L9.64753 2.02639C9.41119 1.89509 9.29302 1.82944 9.16788 1.80371C9.05712 1.78093 8.94288 1.78093 8.83213 1.80371C8.70698 1.82944 8.58881 1.89509 8.35248 2.02639L2.18581 5.45232C1.93621 5.59099 1.8114 5.66032 1.72053 5.75894C1.64013 5.84618 1.57929 5.94958 1.54207 6.06223C1.5 6.18956 1.5 6.33233 1.5 6.61786V13.3821C1.5 13.6677 1.5 13.8104 1.54207 13.9378C1.57929 14.0504 1.64013 14.1538 1.72053 14.241C1.8114 14.3397 1.93621 14.409 2.18581 14.5477L8.35248 17.9736C8.58881 18.1049 8.70698 18.1705 8.83213 18.1963C8.94288 18.219 9.05712 18.219 9.16788 18.1963C9.29302 18.1705 9.41119 18.1049 9.64753 17.9736L15.8142 14.5477C16.0638 14.409 16.1886 14.3397 16.2795 14.241C16.3599 14.1538 16.4207 14.0504 16.4579 13.9378C16.5 13.8104 16.5 13.6677 16.5 13.3821Z" stroke="#999B9F" stroke-width="2" stroke-linecap="round" stroke-linejoin="round"/>
</svg>
