<svg width="20" height="18" viewBox="0 0 20 18" fill="none" xmlns="http://www.w3.org/2000/svg">
<path d="M18.3346 16.5V14.8333C18.3346 13.2801 17.2723 11.9751 15.8346 11.605M12.918 1.7423C14.1396 2.23679 15.0013 3.43443 15.0013 4.83333C15.0013 6.23224 14.1396 7.42988 12.918 7.92437M14.168 16.5C14.168 14.9469 14.168 14.1703 13.9142 13.5577C13.5759 12.741 12.927 12.092 12.1102 11.7537C11.4977 11.5 10.7211 11.5 9.16797 11.5H6.66797C5.11483 11.5 4.33826 11.5 3.72569 11.7537C2.90893 12.092 2.26002 12.741 1.9217 13.5577C1.66797 14.1703 1.66797 14.9469 1.66797 16.5M11.2513 4.83333C11.2513 6.67428 9.75892 8.16667 7.91797 8.16667C6.07702 8.16667 4.58464 6.67428 4.58464 4.83333C4.58464 2.99238 6.07702 1.5 7.91797 1.5C9.75892 1.5 11.2513 2.99238 11.2513 4.83333Z" stroke="#999B9F" stroke-width="2" stroke-linecap="round" stroke-linejoin="round"/>
</svg>
